<svg t="1720342748491" class="icon" viewBox="0 0 1024 1024" version="1.1" xmlns="http://www.w3.org/2000/svg" p-id="8724" width="200" height="200"><path d="M658.08333332 239.35416668c-5.90625 13.078125-8.859375 26.578125-8.015625 40.078125 13.921875-0.84375 27.421875-4.640625 40.5-10.546875l-32.484375-29.53125zM568.22395832 198.43229168l-13.5 14.765625c12.65625 9.28125 25.734375 18.140625 38.390625 27l9.28125-10.546875-34.171875-31.21875zM606.87192707 156.28697918l34.2140625 31.34953125-11.1121875 12.133125-34.2140625-31.35375zM648.26630207 124.37635418l84.60703125 77.52796875-9.1209375 9.95203125-84.60703125-77.52375zM664.49583332 106.46354168l84.60703125 77.52375-9.1209375 9.95625-84.60703125-77.52796875zM587.47833332 177.37229168l34.20984375 31.34953125-11.11640625 12.133125-34.2140625-31.35375z" fill="#FC8F47" p-id="8725"></path><path d="M175.45833332 4.79166668l843.75 843.75V4.79166668H175.45833332z m615.515625 220.640625l33.328125 30.375c1.6875-6.328125 3.375-13.078125 5.0625-20.671875l13.921875 4.21875c-1.6875 8.015625-3.375 16.03125-5.484375 24.046875l-7.59375-2.109375 32.484375 29.953125-8.859375 9.703125-71.71875-65.8125 8.859375-9.703125z m-8.859375 24.890625l13.5 1.6875c-0.421875 7.171875-1.265625 16.875-2.953125 29.109375l-14.34375-1.6875 20.25 18.5625c13.078125-2.953125 25.3125-6.328125 37.125-9.703125l5.0625 16.03125c-10.96875 1.6875-21.09375 3.375-30.375 4.640625l23.203125 21.09375-8.4375 10.546875L744.14583332 266.35416668l8.859375-9.703125 24.890625 22.78125c2.109375-10.96875 3.375-20.671875 4.21875-29.109375z m-120.234375-162.84375l106.3125 97.453125-45.140625 49.359375-10.546875-9.703125 3.375-3.375L631.08333332 143.16666668l-3.375 3.375-10.546875-9.703125 44.71875-49.359375z m-94.5 180.5625l16.453125-18.140625c-19.828125-13.5-41.34375-28.265625-64.546875-43.453125l7.171875-13.5c5.484375 4.21875 10.96875 8.015625 16.453125 12.234375l53.578125-58.21875-16.875-15.609375 8.4375-9.28125 151.875 139.21875-8.4375 9.28125-80.15625-73.40625-46.828125 51.046875c5.484375 3.796875 10.96875 7.59375 16.875 11.390625-1.6875 1.6875-4.640625 5.0625-8.859375 10.125-5.484375-3.796875-10.96875-7.59375-16.875-11.390625l-17.71875 19.40625-10.546875-9.703125zM653.86458332 342.29166668c-9.28125-16.453125-14.765625-32.484375-17.296875-48.09375-16.03125 0-32.0625-2.953125-48.515625-8.859375 1.265625-4.640625 1.6875-10.125 1.6875-16.03125 15.609375 6.328125 30.796875 9.703125 45.5625 10.546875 0-16.875 3.796875-33.75 11.8125-49.78125l-6.328125-5.90625 8.015625-8.859375 60.75 55.6875-8.015625 8.859375c-16.875 7.59375-33.75 12.234375-50.625 13.921875 2.953125 14.34375 9.28125 29.109375 18.984375 44.296875-5.484375 1.265625-10.96875 2.953125-16.03125 4.21875z m73.828125-25.3125l5.90625 14.34375c-16.03125 6.328125-31.21875 11.8125-45.140625 16.453125-1.265625-4.640625-2.953125-9.28125-5.0625-14.765625 12.234375-3.375 27-8.859375 44.296875-16.03125z m-30.375 62.859375c-4.21875-4.21875-9.28125-8.4375-14.765625-13.921875 2.53125-3.796875 5.484375-8.015625 8.859375-13.078125 5.484375 5.90625 9.703125 10.546875 13.078125 13.921875 4.640625 4.21875 9.703125 3.796875 14.34375-1.265625l34.59375-37.546875-31.21875-28.6875 8.859375-9.703125 31.21875 28.6875 13.5-14.765625 10.96875 10.125-13.5 14.765625 29.953125 27.421875-8.859375 9.703125-29.53125-27.421875-36.703125 40.078125c-10.125 10.546875-20.25 11.390625-30.796875 1.6875z m73.828125-21.515625c-1.265625 13.078125-2.953125 24.890625-4.640625 35.4375l-16.03125-2.109375c2.53125-11.8125 4.640625-23.625 6.328125-35.4375l14.34375 2.109375z m162.421875 0c-22.78125-16.03125-41.34375-29.953125-56.53125-42.1875l-32.90625 35.859375 56.109375 51.46875-9.703125 10.546875-21.9375-20.25-73.828125 80.578125-11.390625-10.546875 73.828125-80.578125-22.78125-20.671875-6.75 7.59375c-28.6875 31.21875-58.640625 48.9375-89.859375 52.734375 0.421875-5.484375 0.84375-10.96875 0.84375-17.296875 26.578125-2.53125 52.734375-17.71875 78.46875-45.984375L875.77083332 295.46354168c21.515625 19.40625 43.03125 35.015625 64.546875 47.25l-6.75 15.609375z" fill="#FC8F47" p-id="8726"></path></svg>