<svg t="1721270175595" class="icon" viewBox="0 0 1024 1024" version="1.1" xmlns="http://www.w3.org/2000/svg" p-id="5386" width="200" height="200"><path d="M146.432 621.056l320 320c12.288 12.288 28.672 18.944 45.056 18.944 16.384 0 32.768-6.144 45.568-18.944l320-320c40.448-40.448 11.776-109.056-45.568-109.056h-128V384.512c0-35.328-28.672-64-64-64h-256c-35.328 0-64 28.672-64 64V512h-128c-56.832 0-84.992 68.608-45.056 109.056zM352.768 256h320.512c17.408 0 31.744-14.336 31.744-31.744 0-17.408-14.336-31.744-31.744-31.744H352.768c-17.408 0-31.744 14.336-31.744 31.744-0.512 17.408 13.824 31.744 31.744 31.744zM352.768 129.536h320.512c17.408 0 31.744-14.336 31.744-31.744s-14.336-31.744-31.744-31.744H352.768c-17.408 0-31.744 14.336-31.744 31.744-0.512 17.408 13.824 31.744 31.744 31.744z" fill="#d81e06" p-id="5387"></path></svg>